<svg width="99" height="86" viewBox="0 0 99 86" fill="none" xmlns="http://www.w3.org/2000/svg">
<g clip-path="url(#clip0_778_3761)">
<path d="M85.2001 56.1203C85.2001 56.1203 78.5801 51.5103 73.8701 56.5803C73.8701 56.5803 78.6601 61.5803 85.2001 56.1203Z" fill="#0B714C"/>
<path d="M98.2502 56.1697C98.2502 56.1697 91.8902 51.1697 86.9102 55.9497C86.9102 55.9497 91.4302 61.2297 98.2502 56.1697Z" fill="#0B714C"/>
<path d="M85.7296 43.4297C85.7296 43.4297 80.1396 49.3597 85.7296 55.2797C85.7296 55.2797 91.3196 51.3297 85.7296 43.4297Z" fill="#0B714C"/>
<path d="M70.8198 59.2299C67.0398 59.3199 65.4498 60.9999 64.8198 62.3999C64.5367 61.9363 64.2012 61.5068 63.8198 61.1199C63.0249 60.3904 62.0907 59.8291 61.0734 59.4699C60.056 59.1108 58.9765 58.9611 57.8998 59.0299C56.8311 58.969 55.7613 59.1265 54.7555 59.4927C53.7497 59.8589 52.8291 60.4262 52.0498 61.1599C51.322 61.9601 50.7621 62.898 50.4031 63.9182C50.0442 64.9385 49.8934 66.0204 49.9598 67.0999C49.931 68.3409 50.138 69.5761 50.5698 70.7399C50.2106 71.2141 49.7487 71.6007 49.2187 71.8709C48.6888 72.1411 48.1045 72.2878 47.5098 72.2999C44.7998 72.2999 44.7298 69.0999 44.7298 69.0999V63.1799C44.7298 63.1799 48.4598 65.1799 48.4598 61.1799C48.4598 57.1799 44.7298 59.1799 44.7298 59.1799C44.7298 59.1799 44.7298 55.2399 46.5998 53.2699H55.9198C55.9198 53.2699 68.9198 53.2699 68.9198 41.4099C68.9198 41.4099 70.7898 33.5199 63.3398 29.5699C63.3398 29.5699 74.5198 19.6999 65.1998 11.7999C65.1998 11.7999 59.6098 5.87993 52.1998 9.79993C52.1998 9.79993 50.3298 -0.0800781 39.1498 -0.0800781C27.9698 -0.0800781 26.0898 9.79993 26.0898 9.79993C26.0898 9.79993 11.1898 5.84992 9.31976 17.6999C9.31976 17.6999 9.31977 25.5899 14.9198 29.5399C14.9198 29.5399 7.45979 35.4599 11.1898 47.3099C11.1898 47.3099 13.0498 53.2399 22.3698 53.2399H31.6898C31.6898 53.2399 33.5498 53.2399 33.5498 59.1499C33.5498 59.1499 29.8298 57.1499 29.8298 61.1499C29.8298 65.1499 33.5498 63.1499 33.5498 63.1499V69.0699C33.5498 69.0699 33.5498 72.1499 30.8398 72.2699C30.1893 72.2576 29.5506 72.0939 28.9744 71.7919C28.3981 71.4899 27.9001 71.0578 27.5198 70.5299C27.8911 69.3739 28.0669 68.1639 28.0398 66.9499C28.1525 65.8739 28.0226 64.7863 27.6597 63.767C27.2967 62.7478 26.71 61.8228 25.9426 61.0602C25.1751 60.2975 24.2465 59.7166 23.225 59.3601C22.2035 59.0035 21.1151 58.8805 20.0398 58.9999C18.9711 58.939 17.9013 59.0965 16.8955 59.4627C15.8897 59.8289 14.9691 60.3962 14.1898 61.1299C13.4607 61.9296 12.8993 62.8672 12.5386 63.8874C12.1779 64.9076 12.0253 65.9898 12.0898 67.0699C12.0763 68.1376 12.2315 69.2007 12.5498 70.2199L12.2998 70.5799C11.8119 71.0644 11.2328 71.4473 10.596 71.7065C9.95919 71.9657 9.2773 72.096 8.58978 72.0899C7.31262 72.1332 6.07015 71.6697 5.13345 70.8004C4.19676 69.9312 3.64185 68.7268 3.58978 67.4499V66.7299C3.64185 65.4531 4.19676 64.2487 5.13345 63.3794C6.07015 62.5102 7.31262 62.0466 8.58978 62.0899C9.49833 62.0864 10.3929 62.3135 11.1898 62.7499L11.0598 59.2599C9.93967 58.9046 8.76082 58.7722 7.58978 58.8699C3.30978 59.3699 0.00976562 62.5899 0.00976562 66.4899V67.6799C0.00976562 71.9299 3.91978 75.3699 8.73978 75.3699C10.8476 75.384 12.8972 74.6784 14.5498 73.3699C14.9596 73.7391 15.417 74.0519 15.9098 74.2999C17.2617 74.9119 18.7368 75.2028 20.2198 75.1499C21.7092 75.1953 23.1846 74.8505 24.4998 74.1499C25.0715 73.8265 25.5935 73.4224 26.0498 72.9499C28.5298 76.1099 33.5398 74.9999 33.5398 74.9999C34.0532 75.0013 34.5613 74.8966 35.0324 74.6925C35.5035 74.4884 35.9274 74.1893 36.2775 73.8138C36.6277 73.4383 36.8965 72.9946 37.0673 72.5104C37.238 72.0262 37.3069 71.512 37.2698 70.9999V63.0999H40.9998V70.9999C40.9998 70.9999 40.9998 74.9999 44.7298 74.9999C44.7298 74.9999 49.6298 76.0799 52.1898 73.1499C52.6527 73.6131 53.1902 73.9951 53.7798 74.2799C55.131 74.894 56.6066 75.185 58.0898 75.1299C59.5759 75.174 61.0478 74.8293 62.3598 74.1299C63.4861 73.5065 64.3989 72.5588 64.9798 71.4099C65.6375 70.0111 65.9496 68.4746 65.8898 66.9299C65.8898 66.8599 65.8898 66.7999 65.8898 66.7299C67.0898 65.0399 68.9998 62.8899 70.8898 62.8899C74.0298 62.8899 74.5498 65.1099 74.5498 65.1099V74.9799H78.2798V65.1099C78.2798 65.1099 78.6898 59.0599 70.8198 59.2299ZM22.4398 70.5399C22.1327 70.8603 21.764 71.1152 21.3558 71.2893C20.9477 71.4634 20.5085 71.5532 20.0648 71.5532C19.621 71.5532 19.1819 71.4634 18.7737 71.2893C18.3656 71.1152 17.9969 70.8603 17.6898 70.5399C17.1119 69.4999 16.8086 68.3297 16.8086 67.1399C16.8086 65.9501 17.1119 64.78 17.6898 63.7399C17.973 63.4081 18.3285 63.1455 18.7289 62.9721C19.1292 62.7988 19.564 62.7194 19.9998 62.7399C20.4492 62.7159 20.8983 62.7933 21.3138 62.9664C21.7292 63.1395 22.1004 63.4039 22.3998 63.7399C23.0576 64.6709 23.3656 65.8041 23.2698 66.9399C23.3929 68.1983 23.1015 69.4625 22.4398 70.5399ZM42.1998 49.2999L41.9398 57.4399C41.8498 59.7899 39.1298 59.2299 39.1298 59.2299C38.8724 59.232 38.6175 59.1807 38.381 59.0793C38.1445 58.9778 37.9316 58.8283 37.7559 58.6403C37.5801 58.4523 37.4453 58.2299 37.3599 57.9872C37.2745 57.7444 37.2404 57.4865 37.2598 57.2299L36.5298 49.2299C36.5298 49.2299 27.9398 51.2799 24.2098 49.3099C21.696 46.4296 19.7941 43.0681 18.6198 39.4299C17.6198 36.0999 16.5198 35.2699 15.8098 35.1699C15.4972 35.2438 15.1925 35.3476 14.8998 35.4799C15.0201 35.3657 15.1638 35.2788 15.3208 35.2253C15.4779 35.1718 15.6447 35.1529 15.8098 35.1699C17.2398 34.8399 20.2498 34.6599 24.2098 37.4599C24.2098 37.4599 29.8098 45.3599 35.3998 45.3599C35.3998 45.3599 31.6698 17.7199 39.1298 11.7899C48.4498 17.7199 42.8598 45.3599 42.8598 45.3599C50.3098 45.3599 54.0498 37.4599 54.0498 37.4599C55.4608 36.45 57.0569 35.728 58.747 35.3351C60.4371 34.9421 62.188 34.886 63.8998 35.1699C64.3599 35.1791 64.813 35.2847 65.2298 35.4799C64.7933 35.3489 64.3492 35.2454 63.8998 35.1699C62.6398 35.1699 60.7898 35.7799 59.6398 39.4299C58.4654 43.0681 56.5636 46.4296 54.0498 49.3099C50.3098 51.3399 42.1998 49.2999 42.1998 49.2999ZM60.2998 70.5399C59.9927 70.8603 59.624 71.1152 59.2159 71.2893C58.8077 71.4634 58.3685 71.5532 57.9248 71.5532C57.481 71.5532 57.0419 71.4634 56.6337 71.2893C56.2256 71.1152 55.8569 70.8603 55.5498 70.5399C54.9719 69.4999 54.6686 68.3297 54.6686 67.1399C54.6686 65.9501 54.9719 64.78 55.5498 63.7399C55.8346 63.4073 56.1917 63.1442 56.5938 62.9709C56.9959 62.7976 57.4324 62.7186 57.8698 62.7399C58.3176 62.7174 58.7647 62.7956 59.1783 62.9686C59.5919 63.1417 59.9614 63.4052 60.2598 63.7399C60.9211 64.6695 61.2327 65.8029 61.1398 66.9399C61.2599 68.1994 60.9649 69.4637 60.2998 70.5399Z" fill="#0B714C"/>
<path d="M23.5196 82.4295H18.9495C19.0223 82.8318 19.2481 83.1903 19.5796 83.4295C19.947 83.6899 20.3894 83.8233 20.8396 83.8095C21.1321 83.8187 21.4233 83.7675 21.6952 83.6591C21.967 83.5507 22.2136 83.3875 22.4195 83.1795L23.1496 84.0095C22.8809 84.3262 22.5371 84.5703 22.1496 84.7195C21.665 84.8951 21.1504 84.9731 20.6356 84.9491C20.1207 84.925 19.6157 84.7994 19.1496 84.5795C18.6774 84.3442 18.2846 83.9757 18.0196 83.5195C17.75 83.0516 17.6119 82.5195 17.6196 81.9795C17.6106 81.4438 17.7453 80.9156 18.0095 80.4495C18.2598 80.0028 18.6305 79.6355 19.0796 79.3895C19.5537 79.1432 20.0802 79.0146 20.6146 79.0146C21.1489 79.0146 21.6754 79.1432 22.1496 79.3895C22.5754 79.6425 22.9218 80.0097 23.1496 80.4495C23.4084 80.9317 23.5392 81.4723 23.5296 82.0195C23.5196 82.1595 23.5196 82.2895 23.5196 82.4295ZM19.5196 80.4995C19.2238 80.7574 19.029 81.1117 18.9696 81.4995H22.2696C22.2215 81.1125 22.0329 80.7566 21.7396 80.4995C21.4258 80.2446 21.0338 80.1054 20.6295 80.1054C20.2252 80.1054 19.8333 80.2446 19.5196 80.4995Z" fill="#0B714C"/>
<path d="M25.2802 84.8296C24.8971 84.7326 24.5323 84.5739 24.2002 84.3596L24.7202 83.3596C25.0081 83.5507 25.3258 83.6927 25.6602 83.7797C26.0138 83.8858 26.381 83.9397 26.7502 83.9397C27.5602 83.9397 27.9702 83.7296 27.9702 83.2996C27.9707 83.2044 27.9409 83.1114 27.8852 83.0342C27.8295 82.9569 27.7508 82.8993 27.6602 82.8696C27.3347 82.7645 26.9998 82.6908 26.6602 82.6496C26.2656 82.5897 25.8749 82.5063 25.4902 82.3996C25.1912 82.3035 24.9224 82.1312 24.7102 81.8996C24.5892 81.7644 24.4968 81.6061 24.4384 81.4343C24.3799 81.2625 24.3568 81.0806 24.3702 80.8996C24.3671 80.6386 24.4296 80.381 24.5519 80.1504C24.6742 79.9198 24.8524 79.7235 25.0702 79.5796C25.6234 79.2251 26.2741 79.0537 26.9302 79.0896C27.3338 79.0883 27.7362 79.1319 28.1302 79.2197C28.4824 79.2841 28.8208 79.4093 29.1302 79.5896L28.6102 80.5896C28.1024 80.2986 27.5254 80.15 26.9402 80.1597C26.6265 80.1414 26.3133 80.2033 26.0302 80.3396C25.9403 80.3819 25.8638 80.4481 25.8091 80.5311C25.7544 80.614 25.7237 80.7104 25.7202 80.8096C25.7178 80.9118 25.7486 81.0119 25.8082 81.0949C25.8677 81.1779 25.9527 81.2392 26.0502 81.2696C26.3748 81.387 26.7095 81.4741 27.0502 81.5297C27.4399 81.5806 27.8246 81.6642 28.2002 81.7797C28.495 81.8683 28.7608 82.034 28.9702 82.2596C29.0881 82.3962 29.1773 82.5552 29.2322 82.727C29.2872 82.8988 29.3069 83.08 29.2902 83.2596C29.2935 83.5191 29.2299 83.775 29.1056 84.0027C28.9812 84.2304 28.8003 84.4222 28.5802 84.5596C28.0022 84.9166 27.3285 85.0876 26.6502 85.0496C26.1859 85.0363 25.7253 84.9624 25.2802 84.8296Z" fill="#0B714C"/>
<path d="M33.9601 84.6198C33.7901 84.7574 33.5922 84.8563 33.3801 84.9099C33.1464 84.9787 32.9038 85.0123 32.6602 85.0098C32.3925 85.03 32.1236 84.9962 31.8693 84.9103C31.615 84.8244 31.3807 84.6882 31.1801 84.5098C30.9968 84.316 30.8558 84.086 30.7663 83.8346C30.6768 83.5832 30.6406 83.316 30.6602 83.0498V80.2498H29.6602V79.1698H30.6602V77.8398H32.0201V79.1698H33.5701V80.2498H32.0201V83.0198C32.0013 83.2541 32.0729 83.4867 32.2202 83.6698C32.299 83.7468 32.3932 83.8062 32.4966 83.8441C32.6 83.882 32.7103 83.8976 32.8201 83.8898C33.0937 83.9012 33.3627 83.8163 33.5801 83.6498L33.9601 84.6198Z" fill="#0B714C"/>
<path d="M35.0002 84.7598C34.8426 84.5779 34.7559 84.3454 34.7559 84.1048C34.7559 83.8641 34.8426 83.6316 35.0002 83.4498C35.1742 83.2881 35.4028 83.1982 35.6402 83.1982C35.8777 83.1982 36.1063 83.2881 36.2802 83.4498C36.3647 83.5369 36.4305 83.6404 36.4734 83.7539C36.5164 83.8674 36.5358 83.9885 36.5302 84.1098C36.5298 84.2856 36.4778 84.4575 36.3807 84.6041C36.2837 84.7508 36.1458 84.8658 35.9841 84.9349C35.8224 85.004 35.644 85.0243 35.4709 84.9932C35.2979 84.9621 35.1377 84.8809 35.0102 84.7598H35.0002Z" fill="#0B714C"/>
<path d="M43.0798 77.3096V84.9396H41.6598V78.4996H40.0498V77.3096H43.0798Z" fill="#0B714C"/>
<path d="M49.5899 78.19C50.2177 78.9828 50.5279 79.9809 50.4599 80.9899C50.4797 81.7502 50.3187 82.5042 49.9899 83.19C49.7012 83.7707 49.2449 84.2514 48.6799 84.57C48.068 84.9044 47.3768 85.0668 46.6799 85.0399C46.3065 85.0429 45.934 85.0026 45.5699 84.9199C45.2533 84.8465 44.9498 84.7251 44.6699 84.56L45.1899 83.4899C45.6279 83.7495 46.1311 83.8779 46.6399 83.8599C46.9587 83.8769 47.2773 83.8249 47.5741 83.7076C47.871 83.5902 48.139 83.4103 48.3599 83.1799C48.8097 82.6339 49.0318 81.9355 48.9799 81.2299C48.7472 81.4978 48.4517 81.704 48.1199 81.8299C47.745 81.9659 47.3487 82.0337 46.9499 82.03C46.4839 82.0357 46.0225 81.9365 45.5999 81.7399C45.2147 81.5621 44.8885 81.2775 44.6599 80.9199C44.4276 80.5389 44.3047 80.1012 44.3047 79.655C44.3047 79.2087 44.4276 78.771 44.6599 78.3899C44.9054 78.0122 45.2518 77.7108 45.6599 77.5199C46.1053 77.3161 46.5902 77.2137 47.0799 77.22C47.5449 77.175 48.014 77.2393 48.4498 77.4077C48.8856 77.5761 49.276 77.844 49.5899 78.19ZM48.3899 80.5399C48.5266 80.4247 48.636 80.2807 48.7104 80.1182C48.7847 79.9556 48.8221 79.7787 48.8199 79.6C48.8239 79.4249 48.7882 79.2511 48.7155 79.0918C48.6427 78.9324 48.5349 78.7916 48.3999 78.6799C48.0695 78.4237 47.6574 78.2958 47.2399 78.32C46.8487 78.2968 46.4632 78.4218 46.1599 78.6699C46.0273 78.789 45.9212 78.9348 45.8485 79.0976C45.7759 79.2604 45.7384 79.4367 45.7384 79.6149C45.7384 79.7932 45.7759 79.9695 45.8485 80.1323C45.9212 80.2952 46.0273 80.4408 46.1599 80.56C46.4756 80.8068 46.8698 80.9311 47.2699 80.91C47.6755 80.9242 48.0727 80.793 48.3899 80.5399Z" fill="#0B714C"/>
<path d="M56.4199 78.1895C57.0477 78.9824 57.3579 79.9805 57.2899 80.9895C57.3098 81.7497 57.1487 82.5038 56.8199 83.1895C56.5312 83.7703 56.0749 84.251 55.5099 84.5695C54.8969 84.9012 54.2065 85.0634 53.5099 85.0395C53.1399 85.0419 52.7708 85.0016 52.41 84.9195C52.0928 84.8478 51.7891 84.7263 51.5099 84.5595L52.03 83.4895C52.4679 83.7491 52.9712 83.8775 53.4799 83.8595C53.7987 83.8765 54.1173 83.8245 54.4141 83.7072C54.711 83.5898 54.979 83.4099 55.1999 83.1795C55.6452 82.631 55.8667 81.9345 55.8199 81.2295C55.5872 81.4974 55.2917 81.7036 54.96 81.8295C54.585 81.9655 54.1888 82.0333 53.7899 82.0295C53.3238 82.0363 52.8622 81.9371 52.44 81.7395C52.049 81.5611 51.7192 81.2716 51.4916 80.9071C51.264 80.5426 51.1487 80.1191 51.16 79.6895C51.1478 79.2286 51.2769 78.775 51.53 78.3895C51.7754 78.0118 52.1219 77.7104 52.53 77.5195C52.975 77.3148 53.4601 77.2123 53.9499 77.2195C54.4085 77.181 54.8697 77.2484 55.298 77.4166C55.7263 77.5848 56.1102 77.8493 56.4199 78.1895ZM55.21 80.5395C55.3483 80.4257 55.4588 80.282 55.5333 80.1191C55.6079 79.9562 55.6443 79.7786 55.6399 79.5995C55.6439 79.4244 55.6082 79.2507 55.5355 79.0913C55.4627 78.932 55.3549 78.7912 55.22 78.6795C54.8904 78.4216 54.4777 78.2936 54.06 78.3195C53.672 78.298 53.2901 78.4229 52.99 78.6695C52.8573 78.7886 52.7512 78.9344 52.6786 79.0972C52.606 79.26 52.5684 79.4363 52.5684 79.6145C52.5684 79.7928 52.606 79.9691 52.6786 80.1319C52.7512 80.2947 52.8573 80.4404 52.99 80.5595C53.3127 80.7937 53.7012 80.9198 54.0999 80.9198C54.4987 80.9198 54.8872 80.7937 55.21 80.5595V80.5395Z" fill="#0B714C"/>
<path d="M60.8198 77.3096V84.9396H59.4098V78.4996H57.7998V77.3096H60.8198Z" fill="#0B714C"/>
</g>
<defs>
<clipPath id="clip0_778_3761">
<rect width="98.24" height="85.04" fill="white"/>
</clipPath>
</defs>
</svg>
